<?xml version="1.0" encoding="iso-8859-1"?>
<!-- Uploaded to: SVG Repo, www.svgrepo.com, Generator: SVG Repo Mixer Tools -->
<svg height="800px" width="800px" version="1.1" id="Capa_1" xmlns="http://www.w3.org/2000/svg" xmlns:xlink="http://www.w3.org/1999/xlink" 
	 viewBox="0 0 512 512" xml:space="preserve">
<path style="fill:#9E8CEC;" d="M256.012,0.006C114.845,0.006,0,114.845,0,256s114.845,255.994,256.012,255.994
	C397.163,511.994,512,397.157,512,256S397.163,0.006,256.012,0.006z M272.452,272.458c-4.327,4.327-10.332,6.81-16.446,6.81
	c-6.127,0-12.131-2.482-16.46-6.81c-4.344-4.33-6.827-10.333-6.827-16.463c0-6.127,2.484-12.116,6.827-16.46
	c4.329-4.329,10.333-6.813,16.46-6.813c6.113,0,12.119,2.484,16.446,6.813c4.33,4.346,6.827,10.333,6.827,16.46
	C279.279,262.125,276.783,268.114,272.452,272.458z"/>
<path style="fill:#6A56CF;" d="M256.012,0.006H256v232.718l0.006-0.002c6.113,0,12.119,2.484,16.446,6.813
	c4.33,4.346,6.827,10.333,6.827,16.46c0,6.13-2.496,12.119-6.827,16.463c-4.327,4.327-10.332,6.81-16.446,6.81H256v232.726h0.012
	C397.163,511.994,512,397.157,512,256S397.163,0.006,256.012,0.006z"/>
<path style="fill:#D4CBF6;" d="M108.125,107.81l130.956,132.254c4.239-4.509,10.242-7.342,16.918-7.342c0,0,0.022,0.003,0.033,0.003
	V46.552c-0.006,0-0.016,0-0.022,0C198.343,46.552,146.043,69.978,108.125,107.81z"/>
<path style="fill:#AB99EC;" d="M232.758,255.967c0-6.16,2.413-11.743,6.324-15.901L108.125,107.81
	c-38.021,37.939-61.58,90.363-61.58,148.19h186.213C232.758,255.989,232.758,255.977,232.758,255.967z"/>
<path style="fill:#D4CBF6;" d="M256.033,178.39c-42.794,0-77.608,34.818-77.608,77.615c0,42.791,34.814,77.605,77.608,77.605
	c42.758,0,77.543-34.814,77.543-77.605C333.576,213.208,298.791,178.39,256.033,178.39z M272.452,272.458
	c-4.327,4.327-10.332,6.81-16.446,6.81c-6.127,0-12.131-2.482-16.46-6.81c-4.344-4.33-6.827-10.333-6.827-16.463
	c0-6.127,2.484-12.116,6.827-16.46c4.329-4.329,10.333-6.813,16.46-6.813c6.113,0,12.119,2.484,16.446,6.813
	c4.33,4.346,6.827,10.333,6.827,16.46C279.279,262.125,276.783,268.114,272.452,272.458z"/>
<path style="fill:#AB99EC;" d="M256.033,178.39c-0.394,0-0.782,0.025-1.173,0.031v54.36c0.382-0.019,0.763-0.057,1.145-0.057
	c6.113,0,12.119,2.484,16.446,6.813c4.33,4.346,6.827,10.333,6.827,16.46c0,6.13-2.496,12.119-6.827,16.463
	c-4.327,4.327-10.332,6.81-16.446,6.81c-0.382,0-0.763-0.037-1.145-0.057v54.37c0.391,0.005,0.779,0.029,1.173,0.029
	c42.758,0,77.543-34.814,77.543-77.605C333.576,213.208,298.791,178.39,256.033,178.39z"/>
</svg>